<?xml version="1.0" encoding="utf-8"?>
<svg viewBox="0 0 300 300" xmlns="http://www.w3.org/2000/svg" width="300px" height="300px">
  <defs>
    <linearGradient id="gradient-0-0" gradientUnits="userSpaceOnUse" x1="203.155" y1="-0.001" x2="203.155" y2="165.404" gradientTransform="matrix(0.788489, 0.615049, -0.957352, 1.22732, 482.820007, 176.213333)" href="#gradient-0"/>
    <linearGradient id="gradient-0">
      <stop style="stop-color: rgb(199, 87, 188);" offset="0.1075"/>
      <stop style="stop-color: rgb(208, 96, 154);" offset="0.2138"/>
      <stop style="stop-color: rgb(225, 114, 92);" offset="0.4254"/>
      <stop style="stop-color: rgb(238, 126, 47);" offset="0.6048"/>
      <stop style="stop-color: rgb(245, 134, 19);" offset="0.743"/>
      <stop style="stop-color: rgb(248, 137, 9);" offset="0.8232"/>
    </linearGradient>
    <linearGradient id="gradient-6" gradientUnits="userSpaceOnUse" x1="131.851" y1="62.55" x2="131.851" y2="370.114" gradientTransform="matrix(0.782612, 0.62251, -0.350993, 0.441265, 416.632645, 395.420357)" href="#gradient-3"/>
    <linearGradient id="gradient-3">
      <stop offset="0.092" style="stop-color: rgb(0, 149, 213);"/>
      <stop offset="0.311" style="stop-color: rgb(35, 138, 217);"/>
      <stop offset="0.6211" style="stop-color: rgb(85, 123, 222);"/>
      <stop style="stop-color: rgb(116, 114, 226);" offset="0.8643"/>
      <stop style="stop-color: rgb(128, 110, 227);" offset="1"/>
    </linearGradient>
    <linearGradient id="gradient-4" gradientUnits="userSpaceOnUse" x1="260.345" y1="119.471" x2="260.345" y2="367.75" gradientTransform="matrix(0.942056, -0.33546, 0.227454, 0.638748, 312.907768, 539.361176)" href="#gradient-3"/>
  </defs>
  <g transform="matrix(0.776946, 0, 0, 0.776946, -265.756653, -269.879883)" style="">
    <path id="path3924" style="fill-opacity: 1; paint-order: fill; fill: url(#gradient-0-0);" d="M 639.967 440.544 C 643.169 440.52 646.622 440.872 650.126 441.64 C 664.142 444.713 674.009 453.205 672.199 460.643 C 670.389 468.081 657.564 471.683 643.548 468.61 C 629.532 465.537 619.665 456.972 621.475 449.534 C 622.833 443.955 630.361 440.591 639.967 440.544 L 639.967 440.544 Z M 501.167 434.477 C 504.369 434.454 507.822 434.805 511.326 435.574 C 525.342 438.647 535.209 447.139 533.399 454.577 C 531.589 462.015 518.764 465.544 504.748 462.47 C 490.732 459.397 480.865 450.905 482.675 443.467 C 484.033 437.889 491.561 434.525 501.166 434.477 L 501.167 434.477 Z M 592.227 404.949 C 595.429 404.926 598.882 405.351 602.386 406.119 C 616.402 409.192 626.269 417.684 624.459 425.122 C 622.649 432.56 609.824 436.089 595.808 433.015 C 581.792 429.943 571.925 421.45 573.735 414.012 C 575.093 408.434 582.62 404.997 592.227 404.949 L 592.227 404.949 Z M 454.897 397.933 C 458.099 397.91 461.552 398.261 465.056 399.029 C 479.072 402.102 488.939 410.594 487.129 418.032 C 485.319 425.471 472.494 429.072 458.478 425.999 C 444.462 422.926 434.595 414.361 436.405 406.923 C 437.763 401.345 445.29 397.981 454.896 397.933 L 454.897 397.933 Z M 545.527 370.378 C 548.729 370.355 552.109 370.706 555.613 371.474 C 569.629 374.547 579.569 383.112 577.759 390.55 C 575.949 397.988 563.124 401.517 549.108 398.444 C 535.092 395.371 525.152 386.879 526.962 379.441 C 528.32 373.862 535.921 370.425 545.526 370.378 L 545.527 370.378 Z M 548.897 471.022 C 552.099 470.999 555.552 471.35 559.056 472.118 C 573.072 475.191 582.939 483.683 581.129 491.121 C 579.319 498.559 566.494 502.088 552.478 499.015 C 538.462 495.942 528.595 487.45 530.405 480.012 C 531.763 474.433 539.29 471.069 548.896 471.022 L 548.897 471.022 Z M 563.872 356.564 C 562.813 356.541 561.668 356.803 560.217 357.295 L 399.417 404.511 C 398.079 404.823 398.157 405.184 399.271 406.046 L 542.011 519.996 C 544.639 522.175 545.876 522.445 549.539 521.311 L 709.599 465.837 C 713.272 464.488 713.527 464.159 709.746 461.671 L 569.266 358.911 C 567.097 357.383 565.622 356.606 563.857 356.572 L 563.872 356.564 Z">
      <title>Top</title>
    </path>
    <path id="path3924" style="fill-opacity: 1; paint-order: fill; fill: url(#gradient-6);" d="M 389.337 413.793 C 389.043 413.868 388.949 414.327 388.752 415.255 L 352.5 596.585 C 352.078 598.471 352.152 598.939 353.889 600.459 L 491.589 719.159 C 494.792 722.22 495.465 722.181 495.901 718.428 L 536.027 534.538 C 536.868 532.033 536.002 530.654 534.565 529.495 L 390.795 414.685 C 390.055 414.061 389.627 413.733 389.334 413.808 L 389.337 413.793 Z M 464.487 640.076 C 465.027 640.022 465.618 640.048 466.168 640.076 C 472.764 640.425 479.906 646.606 484.075 656.521 C 489.633 669.74 487.78 684.576 479.982 689.63 C 472.184 694.684 461.421 688.085 455.863 674.866 C 450.305 661.647 452.085 646.811 459.883 641.757 C 461.345 640.809 462.867 640.236 464.487 640.076 Z M 491.16 521.672 C 497.839 521.842 505.125 528.12 509.359 538.19 C 514.917 551.409 513.137 566.245 505.339 571.299 C 497.541 576.353 486.705 569.681 481.147 556.462 C 475.589 543.243 477.442 528.48 485.24 523.426 C 486.702 522.478 488.224 521.905 489.845 521.745 C 490.284 521.699 490.715 521.66 491.16 521.672 Z M 398.257 447.195 C 398.797 447.141 399.388 447.165 399.938 447.195 C 406.534 447.544 413.676 453.725 417.845 463.64 C 423.403 476.859 421.55 491.695 413.752 496.749 C 405.954 501.803 395.118 495.204 389.56 481.985 C 384.002 468.766 385.855 453.93 393.653 448.876 C 395.115 447.928 396.637 447.355 398.258 447.194 L 398.257 447.195 Z M 374.657 563.844 C 375.197 563.79 375.788 563.816 376.338 563.844 C 382.934 564.193 390.003 570.447 394.172 580.362 C 399.73 593.581 397.95 608.344 390.152 613.398 C 382.354 618.452 371.518 611.853 365.96 598.634 C 360.402 585.415 362.255 570.579 370.053 565.525 C 371.515 564.577 373.038 564.004 374.658 563.844 L 374.657 563.844 Z M 479.581 581.655 C 486.26 581.825 493.546 588.104 497.78 598.173 C 503.338 611.392 501.558 626.228 493.76 631.282 C 485.962 636.336 475.126 629.664 469.568 616.445 C 464.01 603.226 465.863 588.463 473.661 583.409 C 475.123 582.461 476.645 581.888 478.266 581.728 C 478.705 581.682 479.136 581.643 479.581 581.655 Z M 388.081 506.363 C 394.76 506.533 402.046 512.812 406.28 522.881 C 411.838 536.1 410.058 550.936 402.26 555.99 C 394.462 561.044 383.626 554.372 378.068 541.153 C 372.51 527.934 374.363 513.171 382.161 508.117 C 383.623 507.169 385.145 506.596 386.766 506.436 C 387.205 506.39 387.636 506.351 388.081 506.363 Z">
      <title>Left</title>
    </path>
    <path id="path3924" style="paint-order: fill; fill: url(#gradient-4);" d="M 717.077 476.065 C 716.77 476.128 716.338 476.236 715.834 476.43 L 551.454 533.45 C 548.106 534.829 548.207 535.391 547.654 537.909 L 507.601 721.219 C 507.465 723.917 506.471 725.145 509.647 723.704 L 671.617 663.186 C 674.76 661.682 675.362 661.418 675.71 658.362 L 717.736 477.612 C 718.085 476.339 718 475.885 717.079 476.077 L 717.077 476.065 Z M 559.768 656.079 C 564.396 656.154 568.028 658.332 569.635 662.657 C 572.848 671.306 566.661 685.151 555.748 693.573 C 544.836 701.995 533.38 701.857 530.167 693.207 C 526.954 684.558 533.141 670.713 544.054 662.29 C 549.51 658.079 555.14 656.003 559.768 656.078 L 559.768 656.079 Z M 688.4 504.812 C 693.028 504.887 696.66 507.138 698.267 511.463 C 701.48 520.113 695.293 533.957 684.38 542.379 C 673.468 550.801 662.012 550.59 658.799 541.94 C 655.586 533.291 661.773 519.446 672.686 511.023 C 678.142 506.812 683.772 504.736 688.4 504.811 L 688.4 504.812 Z M 637.649 523.765 C 642.277 523.84 645.909 526.091 647.516 530.416 C 650.729 539.066 644.542 552.91 633.629 561.332 C 622.717 569.754 611.261 569.543 608.048 560.893 C 604.835 552.244 611.022 538.399 621.935 529.976 C 627.391 525.765 633.021 523.689 637.649 523.764 L 637.649 523.765 Z M 585.889 542.494 C 590.517 542.569 594.149 544.82 595.756 549.145 C 598.969 557.795 592.782 571.639 581.869 580.061 C 570.957 588.483 559.501 588.272 556.288 579.622 C 553.075 570.973 559.262 557.128 570.175 548.705 C 575.631 544.494 581.261 542.418 585.889 542.493 L 585.889 542.494 Z M 611.267 636.074 C 615.895 636.149 619.527 638.4 621.134 642.725 C 624.347 651.375 618.16 665.219 607.247 673.641 C 596.335 682.063 584.879 681.852 581.666 673.202 C 578.453 664.553 584.64 650.708 595.553 642.285 C 601.009 638.074 606.639 635.998 611.267 636.073 L 611.267 636.074 Z M 662.349 618.062 C 666.977 618.137 670.609 620.388 672.216 624.713 C 675.429 633.363 669.242 647.207 658.329 655.629 C 647.417 664.051 635.961 663.84 632.748 655.19 C 629.535 646.541 635.722 632.696 646.635 624.273 C 652.091 620.062 657.721 617.986 662.349 618.061 L 662.349 618.062 Z">
      <title>Right</title>
    </path>
  </g>
</svg>